# xmcd
#
# Track frame offsets:
#   150
#   29565
#   50640
#   72097
#   94257
#   119547
#   148287
#   173447
#   201722
#   229585
#   250680
#   266407
#
# Disc length: 3795 seconds
#
# Revision: 0
# Processed by: cddbd v1.5PL3 Copyright (c) Steve Scherf et al.
# Submitted via: uFREEDB ActiveX Control 1.5
#
DISCID=b20ed10c
DTITLE=gusdr - fgh
DYEAR=1900
DGENRE=fgh
TTITLE0=01
TTITLE1=02
TTITLE2=03
TTITLE3=04
TTITLE4=05
TTITLE5=06
TTITLE6=07
TTITLE7=08
TTITLE8=09
TTITLE9=10
TTITLE10=11
TTITLE11=12
EXTD=fh
EXTT0=
EXTT1=
EXTT2=
EXTT3=
EXTT4=
EXTT5=
EXTT6=
EXTT7=
EXTT8=
EXTT9=
EXTT10=
EXTT11=
PLAYORDER=
